<svg width="180px" height="180px" viewBox='0 0 180 180' fill="none" xmlns="http://www.w3.org/2000/svg">
    <path d="M135 135C159.853 110.147 159.853 69.8528 135 45C110.147 20.1472 69.8528 20.1472 45 45C20.1472 69.8528 20.1472 110.147 45 135C69.8528 159.853 110.147 159.853 135 135Z" fill="#55B76B"/>
    <path d="M111.164 83.1482C111.164 83.1482 113.96 84.3822 114.68 85.7802C115.4 87.1836 119.913 84.3292 120.866 87.0883C121.819 89.8474 124.144 87.0301 124.726 91.2084C125.304 95.3868 121.999 97.0179 125.775 99.4328C129.551 101.848 134.741 107.308 135.975 112.275C137.209 117.243 141.991 128.364 138.533 129.015C135.074 129.661 135.742 125.112 132.972 123.64C130.197 122.168 131.32 120.574 129.641 117.746C127.962 114.918 120.807 117.523 118.446 116.819C116.084 116.115 112.774 119.08 106.609 117.529C100.445 115.982 99.9103 112.656 96.0179 111.444C92.1307 110.231 91.7389 107.89 98.0091 103.14C104.279 98.3895 101.282 90.2234 105.926 87.2631C110.571 84.3027 106.546 84.5304 111.164 83.1429V83.1482Z" fill="#8BD2A0"/>
    <path d="M68.983 41.3484C68.983 41.3484 72.3564 38.9971 72.5894 41.6874C72.8224 44.3776 69.7456 50.0336 72.2346 50.632C74.7236 51.2304 74.8931 53.3064 74.5594 55.5836C74.2258 57.8554 73.2832 57.5271 70.1851 55.6577C67.0871 53.7883 66.96 60.3286 65.1965 55.7954C63.4383 51.2622 64.847 47.8782 65.1117 46.3265C65.3765 44.7748 68.9724 41.3484 68.9724 41.3484H68.983Z" fill="#8BD2A0"/>
    <path d="M107.335 81.819C107.335 81.819 102.791 84.8906 101.827 87.0777C100.863 89.2649 98.7609 90.5889 98.3108 89.7098C97.8606 88.8307 97.0769 89.0637 98.0142 87.1731C98.9516 85.2825 98.745 85.0389 99.7353 83.3813C100.726 81.7237 100.784 81.1253 103.088 80.8817C105.391 80.6434 107.033 80.1138 107.187 80.9611L107.335 81.8084V81.819Z" fill="#8BD2A0"/>
    <path d="M109.522 73.8908C109.522 73.8908 107.97 75.8715 107.229 75.6543C106.487 75.4319 105.164 75.003 105.227 75.9244C105.291 76.8406 106.662 77.6562 107.25 77.8627C107.838 78.0692 109.956 79.7904 110.237 78.4452C110.512 77.1054 112.71 76.3958 112.053 75.273C111.397 74.1503 110.004 73.6366 109.522 73.8961V73.8908Z" fill="#8BD2A0"/>
    <path d="M80.4583 116.962C80.4583 116.962 77.911 118.953 77.7575 121.299C77.6039 123.645 75.1413 124.752 77.2438 127.437C79.3515 130.122 81.0409 135.254 81.9623 133.554C82.8891 131.854 81.0726 130.795 81.6446 127.405C82.2165 124.016 81.5281 124.588 82.439 122.316C83.3551 120.044 83.9218 118.058 82.8203 117.571C81.7187 117.084 80.453 116.967 80.453 116.967L80.4583 116.962Z" fill="#8BD2A0"/>
    <path d="M85.8181 123.015C85.3308 124.816 85.4473 129.036 86.3635 129.444C87.2797 129.847 90.5366 129.836 91.654 128.793C92.7714 127.749 95.1334 125.674 92.6761 124.683C90.2189 123.688 88.0688 124.185 87.2003 122.575C86.3317 120.966 85.8181 123.02 85.8181 123.02V123.015Z" fill="#8BD2A0"/>
    <path d="M129.751 89.2225C129.174 87.7608 126.95 88.6081 127.437 90.1016C127.84 91.3408 128.104 92.9613 127.633 94.6083C126.643 98.0611 132.468 101.546 133.766 103.108C135.063 104.67 137.51 101.021 134.565 98.6966C131.621 96.3718 130.355 96.9172 130.376 93.1519C130.382 91.685 130.17 90.2869 129.751 89.2277V89.2225Z" fill="#8BD2A0"/>
    <path d="M128.841 85.7751C128.28 85.8969 127.702 85.9234 127.136 85.8227C126.384 85.6903 125.43 85.4414 124.716 84.9966C123.339 84.1387 126.956 83.4767 128.375 82.3805C129.8 81.2842 132.246 81.4219 132.913 83.535C133.464 85.272 130.123 85.505 128.841 85.7804V85.7751Z" fill="#8BD2A0"/>
    <path d="M53.5664 85.8437C53.5664 85.8437 55.6106 89.985 57.6283 90.2128C59.646 90.4405 59.8843 91.4732 60.8693 90.843C61.8543 90.2128 63.7079 89.4872 61.383 87.0459C59.0581 84.6045 61.0388 82.1684 57.3688 83.1482C53.6988 84.1279 54.006 83.1323 53.5717 85.8437H53.5664Z" fill="#8BD2A0"/>
    <path d="M129.238 132.356C129.238 132.356 130.006 130.069 129.138 128.549C128.269 127.029 129.349 125.324 126.934 124.519C124.52 123.714 121.363 121.209 121.485 122.649C121.607 124.084 123.174 124.005 124.207 126.351C125.24 128.697 125.436 128.056 125.801 129.846C126.167 131.636 126.627 133.108 127.512 132.955C128.396 132.806 129.233 132.362 129.233 132.362L129.238 132.356Z" fill="#8BD2A0"/>
    <path d="M26.42 87.2734C29.1473 84.4137 32.7749 81.4374 35.5393 82.3748C40.475 84.0483 46.3428 82.2954 48.6147 83.9635C50.8866 85.6317 48.2228 90.721 46.0992 92.7069C43.9703 94.6928 43.9014 96.7476 47.0789 95.2224C50.2564 93.7025 51.2467 90.8799 54.0641 91.8755C56.8814 92.8658 57.3316 95.8208 59.434 95.4131C61.5364 95.0053 64.9681 94.5975 65.4924 95.4978C66.0167 96.3981 67.2506 100.031 59.8365 100.185C52.4224 100.338 52.0411 103.092 52.5177 104.474C52.9943 105.851 51.8133 106.836 49.7956 107.615C47.7832 108.398 47.5502 113.472 44.3939 114.753C41.2429 116.035 43.0435 120.086 47.1213 116.707C51.199 113.329 57.2362 112.317 57.5963 109.802C57.9512 107.286 56.6696 104.135 61.5311 102.769C66.3927 101.403 69.2153 99.7291 72.4458 101.487C75.6762 103.246 78.3612 105.682 79.6375 110.167C80.9137 114.653 75.7768 113.811 74.6488 119.403C73.5155 125.001 70.2003 122.866 74.0557 128.326C77.911 133.781 82.1265 135.391 81.6975 141.296C81.2633 147.201 86.8186 147.476 79.5051 150.431C72.1916 153.386 72.1863 146.957 66.4827 145.691C60.7791 144.431 64.4544 142.71 60.3555 139.903C56.7066 137.403 55.6157 140.321 50.4047 139.845C47.0206 137.155 43.8643 134.078 40.9993 130.614C30.5242 117.968 25.7633 102.478 26.42 87.2734Z" fill="#8BD2A0"/>
    <path d="M53.8839 44.5472C57.5168 43.308 57.6651 45.6275 57.215 49.1069C56.7701 52.5809 57.5486 55.9332 62.1771 58.3057C66.8057 60.6782 66.7315 64.0675 67.6 66.4559C68.4685 68.8443 68.5745 70.306 62.3731 66.5724C56.1717 62.8389 57.1938 64.8725 52.2051 66.35C47.2165 67.8222 44.4574 68.7808 43.5677 65.2961C42.678 61.8168 43.949 61.2078 40.6285 60.4134C37.9065 59.762 35.6769 61.6738 34.0935 59.5714C37.3134 53.6507 41.5288 48.1589 46.7134 43.3557C49.2554 44.346 52.1416 45.1403 53.8839 44.5472Z" fill="#8BD2A0"/>
    <path d="M71.4396 29.1096C71.286 30.5342 70.6187 32.0223 68.8923 33.2139C67.3089 34.3048 66.345 35.5387 65.6619 36.7197C64.2797 39.1134 64.0573 41.2953 62.1508 41.6819C59.3069 42.2644 57.7605 39.3305 52.7295 39.9502C51.9299 40.0508 51.2414 40.0508 50.6377 39.9925C57.0191 34.9668 64.0784 31.3551 71.4343 29.1149L71.4396 29.1096Z" fill="#8BD2A0"/>
    <path d="M82.6402 30.2537C79.1767 33.5689 80.7867 35.7826 77.964 37.456C75.1361 39.1348 70.5711 37.3713 72.3928 34.7499C74.2146 32.1285 79.3197 29.4541 77.5509 27.59C77.5509 27.59 77.5456 27.5794 77.5403 27.5741C79.8811 27.108 82.243 26.7797 84.6102 26.5785C84.3878 27.7965 83.8371 29.0993 82.6402 30.2432V30.2537Z" fill="#8BD2A0"/>
    <path d="M79.23 52.3793C83.4031 53.1366 88.2435 58.4377 90.5048 56.3458C92.7608 54.254 89.1384 52.8188 89.4986 48.9741C89.8587 45.124 80.5804 47.0464 77.6254 47.4965C74.6703 47.9467 72.2501 46.628 77.0058 42.4655C81.7614 38.303 81.2212 36.3118 86.3687 33.1502C88.879 31.6144 89.6574 28.8183 89.8004 26.3557C95.594 26.3398 101.377 27.1183 106.975 28.6594C107.7 30.1846 108.728 32.0222 110.099 33.6692C113.15 37.3498 113.34 40.522 116.894 44.0119C120.447 47.4965 128.073 59.375 125.706 59.9999C123.344 60.6301 121.506 53.0571 118.44 53.3749C115.379 53.6926 126.05 65.3751 125.971 67.5464C125.611 77.063 116.163 79.0012 115.782 81.7551C115.4 84.5089 110.661 83.3385 114.087 77.8362C117.513 72.3338 111.105 73.4301 114.94 70.0302C118.774 66.6303 112.376 63.7229 110.819 66.1272C109.262 68.5261 104.909 67.0274 106.064 70.2896C107.213 73.5519 106.948 75.1035 102.717 71.0681C98.4855 67.0327 99.4335 72.4609 94.4554 68.595C89.4774 64.7344 89.4827 71.1635 85.8921 73.25C82.3016 75.3418 80.2945 72.1167 84.0492 68.3461C87.7986 64.5702 85.6167 63.278 83.6838 65.7617C81.7508 68.2508 79.463 73.25 78.3827 67.933" fill="#8BD2A0"/>
    <path d="M86.3687 33.1509C88.8789 31.6151 89.6573 28.819 89.8003 26.3564" stroke="white" stroke-width="0.38" stroke-miterlimit="10" stroke-linecap="round"/>
    <path d="M90.5048 56.3463C92.7608 54.2544 89.1384 52.8193 89.4986 48.9745C89.8587 45.1245 80.5804 47.0468 77.6254 47.497C74.6703 47.9471 72.2501 46.6285 77.0058 42.466" stroke="white" stroke-width="0.38" stroke-miterlimit="10" stroke-linecap="round"/>
    <path d="M102.711 71.0789C98.48 67.0435 99.428 72.4717 94.4499 68.6058C89.4719 64.7451 89.4772 71.1742 85.8866 73.2608C82.2961 75.3526 80.289 72.1275 84.0437 68.3568C87.7931 64.5809 85.6113 63.2888 83.6783 65.7725C81.7453 68.2615 79.4575 73.2608 78.3772 67.9438" stroke="white" stroke-width="0.38" stroke-miterlimit="10" stroke-linecap="round"/>
    <path d="M115.782 81.766C115.4 84.5198 110.66 83.3495 114.087 77.8471C117.513 72.3448 111.105 73.441 114.94 70.0411C118.774 66.6412 112.376 63.7338 110.819 66.1381C109.262 68.5371 104.909 67.0384 106.064 70.3006" stroke="white" stroke-width="0.38" stroke-miterlimit="10" stroke-linecap="round"/>
    <path d="M118.44 53.3858C115.379 53.7036 126.05 65.3861 125.971 67.5574" stroke="white" stroke-width="0.38" stroke-miterlimit="10" stroke-linecap="round"/>
    <path d="M110.099 33.68C113.15 37.3605 113.34 40.5327 116.894 44.0227C120.447 47.5073 128.073 59.3858 125.706 60.0107" stroke="white" stroke-width="0.38" stroke-miterlimit="10" stroke-linecap="round"/>
    <path d="M68.983 41.3484C68.983 41.3484 72.3564 38.9971 72.5894 41.6874C72.8224 44.3776 69.7456 50.0336 72.2346 50.632C74.7236 51.2304 74.8931 53.3064 74.5594 55.5836C74.2258 57.8555 73.2832 57.5271 70.1851 55.6577C67.0871 53.7883 66.96 60.3286 65.1965 55.7954C63.4383 51.2622 64.847 47.8782 65.1117 46.3265C65.3765 44.7748 68.9724 41.3484 68.9724 41.3484H68.983Z" stroke="white" stroke-width="0.38" stroke-miterlimit="10" stroke-linecap="round"/>
    <path d="M52.2053 66.3445C47.2166 67.8167 44.4575 68.7753 43.5678 65.2906C42.6781 61.8113 43.9491 61.2023 40.6287 60.4079" stroke="white" stroke-width="0.38" stroke-miterlimit="10" stroke-linecap="round"/>
    <path d="M62.1775 58.3001C66.806 60.6726 66.7319 64.0619 67.6004 66.4503C68.4689 68.8387 68.5748 70.3004 62.3734 66.5669" stroke="white" stroke-width="0.38" stroke-miterlimit="10" stroke-linecap="round"/>
    <path d="M46.7134 43.3505C49.2554 44.3408 52.1416 45.1351 53.8839 44.542C57.5168 43.3028 57.6651 45.6224 57.2149 49.1017" stroke="white" stroke-width="0.38" stroke-miterlimit="10" stroke-linecap="round"/>
    <path d="M66.504 35.4647C64.3116 38.3033 64.3963 41.2213 62.1615 41.682C59.3176 42.2645 57.7712 39.3307 52.7402 39.9503" stroke="white" stroke-width="0.38" stroke-miterlimit="10" stroke-linecap="round"/>
    <path d="M71.4401 29.1096C71.2865 30.5342 70.6193 32.0223 68.8928 33.2139" stroke="white" stroke-width="0.38" stroke-miterlimit="10" stroke-linecap="round"/>
    <path d="M72.3931 34.7551C74.2148 32.1337 79.32 29.4593 77.5512 27.5952C77.5512 27.5952 77.5459 27.5846 77.5406 27.5793" stroke="white" stroke-width="0.38" stroke-miterlimit="10" stroke-linecap="round"/>
    <path d="M82.6405 30.2537C79.1771 33.5689 80.787 35.7825 77.9644 37.456" stroke="white" stroke-width="0.38" stroke-miterlimit="10" stroke-linecap="round"/>
    <path d="M58.608 139.024C56.1878 138.33 54.6838 140.232 50.4048 139.84" stroke="white" stroke-width="0.38" stroke-miterlimit="10" stroke-linecap="round"/>
    <path d="M57.5967 109.797C57.9515 107.281 56.6699 104.13 61.5315 102.764C66.393 101.398 69.2157 99.7242 72.4461 101.482" stroke="white" stroke-width="0.38" stroke-miterlimit="10" stroke-linecap="round"/>
    <path d="M44.3946 114.743C41.2436 116.024 43.0441 120.076 47.1219 116.697" stroke="white" stroke-width="0.38" stroke-miterlimit="10" stroke-linecap="round"/>
    <path d="M59.429 95.4076C61.5314 94.9998 64.9631 94.592 65.4873 95.4923C66.0116 96.3926 67.2456 100.026 59.8314 100.179C52.4173 100.333 52.036 103.086 52.5126 104.469" stroke="white" stroke-width="0.38" stroke-miterlimit="10" stroke-linecap="round"/>
    <path d="M48.6145 83.9635C50.8864 85.6317 48.2226 90.721 46.099 92.7069C43.9701 94.6928 43.9013 96.7476 47.0787 95.2224C50.2562 93.7025 51.2465 90.8798 54.0639 91.8755" stroke="white" stroke-width="0.38" stroke-miterlimit="10" stroke-linecap="round"/>
    <path d="M26.4199 87.2734C29.1473 84.4137 32.7749 81.4374 35.5393 82.3748" stroke="white" stroke-width="0.38" stroke-miterlimit="10" stroke-linecap="round"/>
    </svg>